<?xml version="1.0" encoding="UTF-8"?>
<svg width="24px" height="24px" viewBox="0 0 24 24" version="1.1" xmlns="http://www.w3.org/2000/svg" xmlns:xlink="http://www.w3.org/1999/xlink">
    <title>更新-线性icon@2x</title>
    <g id="页面-1" stroke="none" stroke-width="1" fill="none" fill-rule="evenodd">
        <g id="建议更新" transform="translate(-1318.000000, -107.000000)" fill="#FFFFFF" fill-rule="nonzero" stroke="#FFFFFF">
            <g id="编组-5" transform="translate(1310.000000, 99.000000)">
                <g id="更新-线性icon" transform="translate(8.000000, 8.000000)">
                    <path d="M22.3537573,7.62440918 C20.2735297,2.69370502 15.0063797,-0.0876160959 9.76137787,0.974997142 C4.51637609,2.03761038 0.747091322,6.64967162 0.750000039,12.0012305 C0.746780887,16.5504655 3.48596244,20.6530999 7.68890268,22.3940316 C11.8918429,24.1349633 16.729744,23.1708896 19.9442827,19.9518384 C23.1789337,16.7146777 24.1314735,11.8412696 22.3537602,7.62440918 L22.3537573,7.62440918 Z M11.9936938,21.9665046 C6.49892578,21.9665046 2.02874707,17.4959985 2.02874707,12.0012305 C2.02874707,6.5064624 6.49892578,2.03629468 11.9936938,2.03629468 C17.4884619,2.03629468 21.9589526,6.50647778 21.9589526,12.0012458 C21.9589526,17.4960139 17.4884619,21.9665046 11.9936938,21.9665046 L11.9936938,21.9665046 Z" id="形状" stroke-width="0.5"></path>
                    <path d="M13.4447461,8.47922607 C12.6428115,7.67942862 11.3448838,7.67942862 10.5429492,8.47922607 L8.06858643,10.9535889 C7.88134694,11.140917 7.88141876,11.444564 8.06874684,11.6318035 C8.25607492,11.8190429 8.55972193,11.8189711 8.74696143,11.6316431 L11.2210166,9.15758789 C11.383212,8.9950606 11.5138357,9.10163786 11.514167,9.29952905 L11.514167,15.6753809 C11.514167,15.9402174 11.7288595,16.1549099 11.993696,16.1549099 C12.2585326,16.1549099 12.4732251,15.9402174 12.4732251,15.6753809 L12.4732251,9.29986084 C12.4736078,9.10204973 12.6045009,8.99539238 12.7666963,9.15791968 L15.2407515,11.6319749 C15.427991,11.8193029 15.731638,11.8193748 15.9189661,11.6321353 C16.1062941,11.4448958 16.106366,11.1412487 15.9191265,10.9539207 L13.4447461,8.47922607 Z" id="路径" stroke-width="0.75"></path>
                </g>
            </g>
        </g>
    </g>
</svg>